<mxfile host="65bd71144e">
    <diagram id="m8P2tEuYKjLTcJf67UYX" name="Page-1">
        <mxGraphModel dx="676" dy="621" grid="1" gridSize="10" guides="1" tooltips="1" connect="1" arrows="1" fold="1" page="1" pageScale="1" pageWidth="850" pageHeight="1100" math="0" shadow="0">
            <root>
                <mxCell id="0"/>
                <mxCell id="1" parent="0"/>
                <mxCell id="9" value="" style="rounded=0;whiteSpace=wrap;html=1;" parent="1" vertex="1">
                    <mxGeometry x="150" y="40" width="560" height="450" as="geometry"/>
                </mxCell>
                <mxCell id="10" value="Participant" style="shape=umlActor;verticalLabelPosition=bottom;verticalAlign=top;html=1;outlineConnect=0;" parent="1" vertex="1">
                    <mxGeometry x="750" y="240" width="30" height="60" as="geometry"/>
                </mxCell>
                <mxCell id="55" style="edgeStyle=none;html=1;entryX=0;entryY=0.5;entryDx=0;entryDy=0;fontColor=#F0F0F0;endArrow=none;endFill=0;" parent="1" target="54" edge="1">
                    <mxGeometry relative="1" as="geometry">
                        <mxPoint x="110" y="270" as="sourcePoint"/>
                    </mxGeometry>
                </mxCell>
                <mxCell id="11" value="Instructor" style="shape=umlActor;verticalLabelPosition=bottom;verticalAlign=top;html=1;outlineConnect=0;" parent="1" vertex="1">
                    <mxGeometry x="80" y="240" width="30" height="60" as="geometry"/>
                </mxCell>
                <mxCell id="18" value="UC1&lt;br&gt;การสร้างกิจกรรม" style="ellipse;whiteSpace=wrap;html=1;" parent="1" vertex="1">
                    <mxGeometry x="260" y="370" width="110" height="50" as="geometry"/>
                </mxCell>
                <mxCell id="20" value="Activity Management" style="text;html=1;strokeColor=none;fillColor=none;align=center;verticalAlign=middle;whiteSpace=wrap;rounded=0;" parent="1" vertex="1">
                    <mxGeometry x="360" y="50" width="140" height="30" as="geometry"/>
                </mxCell>
                <mxCell id="21" value="UC2&lt;br&gt;การลงทะเบียนผู้เข้าร่วม" style="ellipse;whiteSpace=wrap;html=1;" parent="1" vertex="1">
                    <mxGeometry x="510" y="100" width="150" height="50" as="geometry"/>
                </mxCell>
                <mxCell id="26" value="UC-3&lt;br&gt;การจัดใบประกาศ" style="ellipse;whiteSpace=wrap;html=1;fontColor=#F0F0F0;" parent="1" vertex="1">
                    <mxGeometry x="220" y="110" width="115" height="50" as="geometry"/>
                </mxCell>
                <mxCell id="27" value="UC-4&lt;br&gt;การเเจ้งเตือน" style="ellipse;whiteSpace=wrap;html=1;fontColor=#F0F0F0;" parent="1" vertex="1">
                    <mxGeometry x="420" y="200" width="125" height="50" as="geometry"/>
                </mxCell>
                <mxCell id="28" value="UC-5&lt;br&gt;การแสดงผลและการค้นหากิจกรรม" style="ellipse;whiteSpace=wrap;html=1;fontColor=#F0F0F0;" parent="1" vertex="1">
                    <mxGeometry x="460" y="330" width="152.5" height="50" as="geometry"/>
                </mxCell>
                <mxCell id="40" value="" style="endArrow=none;html=1;fontColor=#F0F0F0;entryX=0;entryY=0.5;entryDx=0;entryDy=0;" parent="1" target="18" edge="1">
                    <mxGeometry width="50" height="50" relative="1" as="geometry">
                        <mxPoint x="110" y="270" as="sourcePoint"/>
                        <mxPoint x="440.00000000000205" y="140" as="targetPoint"/>
                    </mxGeometry>
                </mxCell>
                <mxCell id="41" value="" style="endArrow=none;html=1;fontColor=#F0F0F0;entryX=0;entryY=0.5;entryDx=0;entryDy=0;" parent="1" target="26" edge="1">
                    <mxGeometry width="50" height="50" relative="1" as="geometry">
                        <mxPoint x="110" y="270" as="sourcePoint"/>
                        <mxPoint x="250" y="135" as="targetPoint"/>
                    </mxGeometry>
                </mxCell>
                <mxCell id="42" value="" style="endArrow=none;html=1;fontColor=#F0F0F0;exitX=1;exitY=0.5;exitDx=0;exitDy=0;" parent="1" source="21" edge="1">
                    <mxGeometry width="50" height="50" relative="1" as="geometry">
                        <mxPoint x="130" y="280" as="sourcePoint"/>
                        <mxPoint x="750" y="270" as="targetPoint"/>
                    </mxGeometry>
                </mxCell>
                <mxCell id="43" value="&amp;lt;&amp;lt;include&amp;gt;&amp;gt;" style="endArrow=open;endSize=12;dashed=1;html=1;fontColor=#F0F0F0;entryX=0.704;entryY=-0.02;entryDx=0;entryDy=0;entryPerimeter=0;exitX=0;exitY=1;exitDx=0;exitDy=0;" parent="1" source="21" target="27" edge="1">
                    <mxGeometry x="-0.0042" width="160" relative="1" as="geometry">
                        <mxPoint x="210" y="290" as="sourcePoint"/>
                        <mxPoint x="370" y="290" as="targetPoint"/>
                        <mxPoint as="offset"/>
                    </mxGeometry>
                </mxCell>
                <mxCell id="48" value="&amp;lt;&amp;lt;extends&amp;gt;&amp;gt;" style="endArrow=open;endSize=12;dashed=1;html=1;fontColor=#F0F0F0;entryX=1;entryY=1;entryDx=0;entryDy=0;exitX=0;exitY=0;exitDx=0;exitDy=0;" parent="1" source="27" target="26" edge="1">
                    <mxGeometry x="-0.0111" width="160" relative="1" as="geometry">
                        <mxPoint x="566.9669914110093" y="152.6776695296635" as="sourcePoint"/>
                        <mxPoint x="507.9999999999998" y="189" as="targetPoint"/>
                        <mxPoint as="offset"/>
                    </mxGeometry>
                </mxCell>
                <mxCell id="52" value="" style="endArrow=none;html=1;fontColor=#F0F0F0;exitX=1;exitY=0.5;exitDx=0;exitDy=0;" parent="1" source="28" edge="1">
                    <mxGeometry width="50" height="50" relative="1" as="geometry">
                        <mxPoint x="370" y="300" as="sourcePoint"/>
                        <mxPoint x="750" y="270" as="targetPoint"/>
                    </mxGeometry>
                </mxCell>
                <mxCell id="53" value="&amp;lt;&amp;lt;extends&amp;gt;&amp;gt;" style="endArrow=open;endSize=12;dashed=1;html=1;fontColor=#F0F0F0;exitX=0.5;exitY=0;exitDx=0;exitDy=0;" parent="1" source="54" target="27" edge="1">
                    <mxGeometry x="-0.0111" width="160" relative="1" as="geometry">
                        <mxPoint x="421.30582617584037" y="242.67766952966406" as="sourcePoint"/>
                        <mxPoint x="348.20765570551293" y="277.3436674048378" as="targetPoint"/>
                        <mxPoint as="offset"/>
                    </mxGeometry>
                </mxCell>
                <mxCell id="54" value="UC6&lt;br&gt;จัดการกิจกรรม" style="ellipse;whiteSpace=wrap;html=1;" parent="1" vertex="1">
                    <mxGeometry x="270" y="260" width="110" height="40" as="geometry"/>
                </mxCell>
                <mxCell id="59" value="" style="endArrow=none;html=1;fontColor=#F0F0F0;entryX=0;entryY=0.5;entryDx=0;entryDy=0;" parent="1" target="28" edge="1">
                    <mxGeometry width="50" height="50" relative="1" as="geometry">
                        <mxPoint x="110" y="270" as="sourcePoint"/>
                        <mxPoint x="340" y="250" as="targetPoint"/>
                    </mxGeometry>
                </mxCell>
            </root>
        </mxGraphModel>
    </diagram>
</mxfile>